<?xml version="1.0" encoding="UTF-8" standalone="no"?>
<!-- Created with Inkscape (http://www.inkscape.org/) -->

<svg
   width="291.52744mm"
   height="121.99928mm"
   viewBox="0 0 291.52744 121.99928"
   version="1.1"
   id="svg1"
   inkscape:version="1.4 (e7c3feb100, 2024-10-09)"
   sodipodi:docname="raspador.svg"
   xml:space="preserve"
   xmlns:inkscape="http://www.inkscape.org/namespaces/inkscape"
   xmlns:sodipodi="http://sodipodi.sourceforge.net/DTD/sodipodi-0.dtd"
   xmlns:xlink="http://www.w3.org/1999/xlink"
   xmlns="http://www.w3.org/2000/svg"
   xmlns:svg="http://www.w3.org/2000/svg"><sodipodi:namedview
     id="namedview1"
     pagecolor="#3c3c3c"
     bordercolor="#585759"
     borderopacity="0.99215686"
     inkscape:showpageshadow="2"
     inkscape:pageopacity="0.0"
     inkscape:pagecheckerboard="0"
     inkscape:deskcolor="#04000b"
     inkscape:document-units="mm"
     inkscape:zoom="1.0066252"
     inkscape:cx="696.88301"
     inkscape:cy="115.73324"
     inkscape:window-width="1920"
     inkscape:window-height="1008"
     inkscape:window-x="0"
     inkscape:window-y="0"
     inkscape:window-maximized="1"
     inkscape:current-layer="layer1"
     showgrid="true"><inkscape:grid
       id="grid19"
       units="mm"
       originx="-0.00071569175"
       originy="-0.00071578484"
       spacingx="0.99999997"
       spacingy="1"
       empcolor="#969696"
       empopacity="0.30196078"
       color="#646464"
       opacity="0.40784314"
       empspacing="5"
       enabled="true"
       visible="true"
       snapvisiblegridlinesonly="false" /><inkscape:grid
       type="axonomgrid"
       id="grid20"
       units="mm"
       originx="-0.00071569175"
       originy="-0.00071578484"
       spacingx="0.99999997"
       spacingy="1"
       empcolor="#0099e5"
       empopacity="0.30196078"
       color="#0099e5"
       opacity="0.14901961"
       empspacing="5"
       dotted="false"
       gridanglex="30"
       gridanglez="30"
       enabled="false"
       visible="true" /><inkscape:grid
       type="modular"
       id="grid21"
       units="mm"
       originx="-0.00071569175"
       originy="-0.00071578484"
       spacingx="39.999999"
       spacingy="40.000001"
       empcolor="#0047cb"
       empopacity="0.30196078"
       color="#0099e5"
       opacity="0.14901961"
       empspacing="0"
       marginx="0"
       marginy="0"
       gapx="9.9999997"
       gapy="10"
       enabled="false"
       visible="false" /><inkscape:grid
       id="grid22"
       units="mm"
       originx="-0.00071569175"
       originy="-0.00071578484"
       spacingx="0.99999997"
       spacingy="1"
       empcolor="#0099e5"
       empopacity="0.30196078"
       color="#0099e5"
       opacity="0.14901961"
       empspacing="5"
       enabled="false"
       visible="true" /><inkscape:grid
       id="grid23"
       units="mm"
       originx="-0.00071569175"
       originy="-0.00071578484"
       spacingx="0.99999997"
       spacingy="1"
       empcolor="#0099e5"
       empopacity="0.30196078"
       color="#0099e5"
       opacity="0.14901961"
       empspacing="5"
       enabled="false"
       visible="true" /><inkscape:grid
       id="grid24"
       units="mm"
       originx="-0.00071569175"
       originy="-0.00071578484"
       spacingx="0.99999997"
       spacingy="1"
       empcolor="#0099e5"
       empopacity="0.30196078"
       color="#0099e5"
       opacity="0.14901961"
       empspacing="1"
       enabled="false"
       visible="true" /></sodipodi:namedview><defs
     id="defs1"><color-profile
       name="FOGRA29L-Uncoated"
       xlink:href="file:///usr/share/color/icc/colord/FOGRA29L_uncoated.icc"
       id="color-profile1" /><marker
       style="overflow:visible"
       id="ArrowWide"
       refX="0"
       refY="0"
       orient="auto-start-reverse"
       inkscape:stockid="Wide arrow"
       markerWidth="1"
       markerHeight="1"
       viewBox="0 0 1 1"
       inkscape:isstock="true"
       inkscape:collect="always"
       preserveAspectRatio="xMidYMid"><path
         style="fill:none;stroke:context-stroke;stroke-width:1;stroke-linecap:butt"
         d="M 3,-3 0,0 3,3"
         transform="rotate(180,0.125,0)"
         sodipodi:nodetypes="ccc"
         id="path1" /></marker><marker
       style="overflow:visible"
       id="Sketch"
       refX="0"
       refY="0"
       orient="auto-start-reverse"
       inkscape:stockid="Sketched arrow"
       markerWidth="1"
       markerHeight="1"
       viewBox="0 0 1 1"
       inkscape:isstock="true"
       inkscape:collect="always"
       preserveAspectRatio="xMidYMid"><path
         style="fill:none;stroke:context-stroke;stroke-width:0.4;stroke-linecap:round"
         d="m -4.5421538,-3.2452189 3.83900644,2.60235235 0.56348102,0.59255887 L -2.4921466,1.1808717 -4.4106004,2.139946 -4.5795251,2.8245356 -4.703996,3.0734773 -4.3128019,2.6822832 -3.9749524,2.3088707 0.66603196,-0.12720162 0.02589622,-0.32279868 -1.7613224,-0.60366199 -3.580874,-2.0472634 -4.3186004,-2.392437 l -1.2937699,-0.2549423 2.1825172,0.042166 0.6996091,1.0554873 1.4406512,0.1145833 1.20879971,0.91674665 1.53333299,0.47138389 -1.85995289,1.23785256 -2.03832621,0.9224332 -1.5469949,0.9779853"
         sodipodi:nodetypes="ccc"
         id="path9" /></marker><rect
       x="291.86917"
       y="216.00426"
       width="139.78812"
       height="152.43227"
       id="rect1" /><linearGradient
       inkscape:collect="always"
       xlink:href="#linearGradient22"
       id="linearGradient24"
       gradientUnits="userSpaceOnUse"
       gradientTransform="matrix(4.3586094,0,0,0.08695363,-981.11665,100.51453)"
       x1="258.21692"
       y1="72.793594"
       x2="258.21692"
       y2="138.89528" /><linearGradient
       id="linearGradient22"
       inkscape:collect="always"><stop
         style="stop-color:#e65309;stop-opacity:0.99052501;"
         offset="0"
         id="stop22" /><stop
         style="stop-color:#f0f3f5;stop-opacity:0.98039216;"
         offset="0.5"
         id="stop24" /><stop
         style="stop-color:#e17313;stop-opacity:0.96796471;"
         offset="1"
         id="stop23" /></linearGradient><linearGradient
       class="linear"
       id="SVGID_1_valve"
       gradientUnits="userSpaceOnUse"
       x1="23.924"
       y1="95.863899"
       x2="23.924"
       y2="58.4035"><stop
         offset="0"
         stop-color="#ff5600"
         id="stop5-7" /><stop
         offset="1"
         stop-color="#1a0c00"
         id="stop6-5" /></linearGradient><linearGradient
       class="linear"
       id="SVGID_2_valve"
       gradientUnits="userSpaceOnUse"
       x1="75.825996"
       y1="95.863899"
       x2="75.825996"
       y2="58.4035"><stop
         offset="0"
         stop-color="#ff5600"
         id="stop7-9" /><stop
         offset="1"
         stop-color="#1a0c00"
         id="stop8-2" /></linearGradient><linearGradient
       class="linear"
       id="SVGID_3_valve"
       gradientUnits="userSpaceOnUse"
       x1="42.25"
       y1="77.133698"
       x2="54.75"
       y2="77.133698"><stop
         offset="0"
         stop-color="#ff5600"
         id="stop9-2" /><stop
         offset="1"
         stop-color="#1a0c00"
         id="stop10-8" /></linearGradient></defs><g
     inkscape:label="Capa 1"
     inkscape:groupmode="layer"
     id="layer1"
     transform="translate(0.14928429,-6.1589223)"><rect
       style="fill:url(#linearGradient24);stroke:#b9b9b9;stroke-width:0.156984;stroke-opacity:1"
       id="rect24"
       width="286.99997"
       height="6.8612647"
       x="0.8499999"
       y="106.28743" /><rect
       style="opacity:0.98;fill:#969696;fill-opacity:1;stroke:#050509;stroke-width:0.147498;stroke-miterlimit:4;stroke-dasharray:none;stroke-opacity:1"
       id="rect838"
       width="40.915394"
       height="37.504467"
       x="138.93459"
       y="51.405975"
       ry="1.6120567" /><rect
       x="148.89938"
       y="79.223923"
       style="fill:#20a040;stroke:#000000;stroke-width:0.0988302;stroke-miterlimit:4;stroke-dasharray:none"
       id="PIT_2002_BACK"
       width="29.901171"
       height="8.9342775"
       ry="1.5642198" /><text
       style="font-size:5.33309px;font-family:Arial;fill:#000000;stroke-width:0.266654"
       x="148.32114"
       y="58.453598"
       id="e3_texte"
       transform="scale(0.99223329,1.0078275)">PIT_2002</text><rect
       x="150.38083"
       y="80.681038"
       style="fill:#000000;stroke:#000000;stroke-width:0.351923px"
       id="PB_PIT_2001"
       width="27.1689"
       height="6.0029826"
       ry="1.774224" /><text
       style="font-size:5.33309px;font-family:Arial;fill:#00ffff;stroke-width:0.266654"
       x="151.87029"
       y="84.496811"
       id="PIT_2002_PV"
       transform="scale(0.99223329,1.0078275)">###.##</text><g
       id="g17"
       transform="matrix(1.5511032,0,0,1.6541503,-67.979304,-70.055251)"><path
         id="path45"
         style="fill:#0000ff;fill-opacity:1;stroke:#303130;stroke-width:0.201537;stroke-opacity:1"
         d="m 93.363628,96.83969 a 4.1227484,3.9335248 0 0 0 -4.12256,3.9335 4.1227484,3.9335248 0 0 0 2.35587,3.54978 v 2.47693 h 3.21985 v -2.35634 a 4.1227484,3.9335248 0 0 0 2.66985,-3.67037 4.1227484,3.9335248 0 0 0 -4.12301,-3.9335 z" /><ellipse
         style="fill:#4e802b;fill-opacity:1;stroke:#d6d6d6;stroke-width:0.3156;stroke-opacity:1"
         id="path46"
         cx="93.308426"
         cy="100.81948"
         rx="2.8750091"
         ry="2.779753" /></g><g
       id="g1"
       transform="translate(69.525339,11.894869)"><g
         id="g55"
         transform="matrix(0.86692568,0,0,1.2298261,10.534371,-93.543554)"><g
           id="shape-8"
           transform="matrix(0.3181153,0,0,0.24277307,138.89975,137.15491)"
           style="fill:#fb5700;fill-opacity:1"><path
             fill="#e34300"
             d="m 94.488,54.267 v 9.427 H 80.995 C 76.955,58.43 70.604,55.033 63.456,55.033 h -4.672 v -4.03 H 66.19 V 38.002 H 84.306 V 36.5 H 86.5 V 33 h -2.194 v -1.877 h 1.416 c 1.833,0 3.334,-1.5 3.334,-3.334 V 10.381 c 0,-1.833 -1.5,-3.333 -3.334,-3.333 H 84.306 V 5.25 H 86.5 V 1.75 H 84.306 V 0.169 h -69 V 1.75 H 13 v 3.5 h 2.306 V 7.048 H 13.89 c -1.833,0 -3.334,1.5 -3.334,3.333 V 27.79 c 0,1.833 1.5,3.334 3.334,3.334 h 1.416 V 33 H 13 v 3.5 h 2.306 v 1.502 h 18.116 v 13.002 h 7.406 v 4.03 h -4.672 c -7.148,0 -13.5,3.397 -17.54,8.661 H 5.512 V 54.268 H 0 V 63.695 65.967 88.3 90.572 100 h 5.512 v -9.427 h 13.104 c 4.04,5.264 10.391,8.661 17.54,8.661 h 27.3 c 7.148,0 13.5,-3.397 17.54,-8.661 H 94.488 V 100 H 100 V 90.573 88.3 65.967 63.695 54.268 H 94.488 Z M 63.69,48.265 h -8.573 v -6.677 h 2.333 v -3.585 h 6.239 V 48.265 Z M 35.922,38.002 h 6.239 v 3.585 h 2.333 v 6.677 h -8.572 z"
             id="path1-7"
             style="fill:#fb5700;fill-opacity:1" /></g><g
           id="light-9"
           transform="matrix(0.3181153,0,0,0.24277307,138.89975,137.15491)"><path
             fill="#ff5600"
             d="m 51,58.3 c -0.428,0 -2.072,0 -2.5,0 -3.452,0 -6.25,8.432 -6.25,18.833 0,10.401 2.798,18.833 6.25,18.833 0.428,0 2.072,0 2.5,0 3.452,0 6.25,-8.432 6.25,-18.833 C 57.25,66.732 54.452,58.3 51,58.3 Z"
             id="path2-2" /><polygon
             fill="#ff5600"
             points="35.922,38.002 33.422,38.002 33.422,51.004 66.19,51.004 66.19,38.002 63.69,38.002 63.69,48.265 35.922,48.265 "
             id="polygon2" /></g><g
           id="dark-0"
           transform="matrix(0.3181153,0,0,0.24277307,138.89975,137.15491)"
           style="fill:#3700cd;fill-opacity:1"><rect
             fill="#8a3400"
             x="13"
             y="33"
             width="2.306"
             height="3.5"
             id="rect2"
             style="fill:#3700cd;fill-opacity:1" /><rect
             fill="#8a3400"
             x="84.306"
             y="33"
             width="2.194"
             height="3.5"
             id="rect3"
             style="fill:#3700cd;fill-opacity:1" /><path
             fill="#8a3400"
             d="M 15.306,7.048 H 13.89 c -1.833,0 -3.334,1.5 -3.334,3.333 V 27.79 c 0,1.833 1.5,3.334 3.334,3.334 h 1.416 z"
             id="path3-2"
             style="fill:#3700cd;fill-opacity:1" /><path
             fill="#8a3400"
             d="m 85.722,7.048 h -1.416 v 24.076 h 1.416 c 1.833,0 3.334,-1.5 3.334,-3.334 V 10.381 c 0,-1.833 -1.501,-3.333 -3.334,-3.333 z"
             id="path4"
             style="fill:#3700cd;fill-opacity:1" /><rect
             x="13"
             y="1.75"
             fill="#8a3400"
             width="2.306"
             height="3.5"
             id="rect4"
             style="fill:#3700cd;fill-opacity:1" /><rect
             x="84.306"
             y="1.75"
             fill="#8a3400"
             width="2.194"
             height="3.5"
             id="rect5"
             style="fill:#3700cd;fill-opacity:1" /></g><g
           id="linear-3"
           transform="matrix(0.3181153,0,0,0.24277307,138.89975,137.15491)"><linearGradient
             class="linear"
             id="linearGradient2"
             gradientUnits="userSpaceOnUse"
             x1="23.924"
             y1="95.863899"
             x2="23.924"
             y2="58.4035"><stop
               offset="0"
               stop-color="#ff5600"
               id="stop1" /><stop
               offset="1"
               stop-color="#1a0c00"
               id="stop2" /></linearGradient><path
             class="linear"
             fill="url(#SVGID_1_valve)"
             d="m 42.25,77.134 c 0,-9.738 2.453,-17.748 5.598,-18.73 -5.426,0.547 -10.164,3.401 -13.239,7.564 H 0 V 88.3 h 34.609 c 3.075,4.162 7.813,7.016 13.239,7.564 -3.145,-0.983 -5.598,-8.992 -5.598,-18.73 z"
             id="path6"
             style="fill:url(#SVGID_1_valve)" /><linearGradient
             class="linear"
             id="linearGradient4"
             gradientUnits="userSpaceOnUse"
             x1="75.825996"
             y1="95.863899"
             x2="75.825996"
             y2="58.4035"><stop
               offset="0"
               stop-color="#ff5600"
               id="stop3" /><stop
               offset="1"
               stop-color="#1a0c00"
               id="stop4" /></linearGradient><path
             class="linear"
             fill="url(#SVGID_2_valve)"
             d="m 64.891,65.967 c -3.075,-4.162 -7.813,-7.016 -13.239,-7.564 3.145,0.983 5.598,8.992 5.598,18.73 0,9.738 -2.453,17.748 -5.598,18.73 5.426,-0.547 10.164,-3.401 13.239,-7.564 H 100 V 65.967 Z"
             id="path8"
             style="fill:url(#SVGID_2_valve)" /><linearGradient
             class="linear"
             id="linearGradient6"
             gradientUnits="userSpaceOnUse"
             x1="42.25"
             y1="77.133698"
             x2="54.75"
             y2="77.133698"><stop
               offset="0"
               stop-color="#ff5600"
               id="stop5" /><stop
               offset="1"
               stop-color="#1a0c00"
               id="stop6" /></linearGradient><ellipse
             class="linear"
             fill="url(#SVGID_3_valve)"
             cx="48.5"
             cy="77.134003"
             rx="6.25"
             ry="18.833"
             id="ellipse10"
             style="fill:url(#SVGID_3_valve)" /></g></g><rect
         style="fill:#1c1c1d;fill-opacity:1;stroke:#303130;stroke-width:0.214313;stroke-opacity:1"
         id="rect47"
         width="1.2072288"
         height="1.3368448"
         x="140.23166"
         y="93.183914" /></g><rect
       style="opacity:0.98;fill:none;fill-opacity:1;stroke:#050505;stroke-width:0.369405;stroke-miterlimit:4;stroke-dasharray:none;stroke-opacity:1"
       id="rect49"
       width="38.556229"
       height="6.3695898"
       x="140.57185"
       y="53.788616"
       ry="0.81231481"
       rx="0.69855058" /><text
       xml:space="preserve"
       transform="scale(0.26458333)"
       id="text1"
       style="font-weight:bold;font-size:29.9359px;font-family:C059;-inkscape-font-specification:'C059, Bold';text-align:start;writing-mode:lr-tb;direction:ltr;white-space:pre;shape-inside:url(#rect1);display:inline;fill:#9d3600;stroke:#050505;stroke-width:1.13386" /><rect
       style="opacity:0.98;fill:#969696;fill-opacity:1;stroke:#050509;stroke-width:0.519727;stroke-miterlimit:4;stroke-dasharray:none;stroke-opacity:1"
       id="rect25-6"
       width="71.859535"
       height="55.713745"
       x="31.920223"
       y="33.418068"
       ry="2.3947473" /><rect
       x="70.30748"
       y="60.379494"
       style="fill:#20a040;stroke:#000000;stroke-width:0.0993539;stroke-miterlimit:4;stroke-dasharray:none"
       id="FIT_2001_FLOW_BACK"
       width="30.220694"
       height="8.933754"
       ry="1.5641282" /><text
       style="font-size:5.33309px;font-family:Arial;fill:#000000;stroke-width:0.266654"
       x="56.314602"
       y="40.593399"
       id="text27-2"
       transform="scale(0.99223329,1.0078275)"
       inkscape:label="LABEL">UIT_2002</text><rect
       x="71.39444"
       y="52.523735"
       style="fill:#000000;stroke:#000000;stroke-width:0.346362px"
       id="PB_FIT_2001"
       width="28.052216"
       height="6.5550799"
       ry="1.6644852" /><rect
       x="71.411385"
       y="44.603127"
       style="fill:#000000;stroke:#000000;stroke-width:0.346362px"
       id="PB_FIT_2001-3"
       width="28.052216"
       height="6.5550799"
       ry="1.6644852" /><text
       style="font-size:5.33309px;font-family:Arial;fill:#00ffff;stroke-width:0.266654"
       x="73.301674"
       y="56.839798"
       id="UIT_2002_SPEED"
       transform="scale(0.99223329,1.0078275)">###.##</text><rect
       x="71.475288"
       y="61.46769"
       style="fill:#000000;stroke:#000000;stroke-width:0.334892px"
       id="rect29"
       width="27.851984"
       height="6.1721406"
       ry="1.5672482" /><text
       style="font-size:5.33309px;font-family:Arial;fill:#00ffff;stroke-width:0.266654"
       x="73.844437"
       y="65.719971"
       id="UIT_2001_TEMPERATURE"
       transform="scale(0.99223329,1.0078275)">###.##</text><rect
       x="71.106773"
       y="70.87159"
       style="fill:#000000;stroke:#000000;stroke-width:0.336598px"
       id="rect30"
       width="28.144466"
       height="6.170434"
       ry="1.5668147" /><text
       style="font-size:5.33309px;font-family:Arial;fill:#00ffff;stroke-width:0.266654"
       x="73.634903"
       y="74.719963"
       id="UIT_2001_PRESSURE_IN"
       transform="scale(0.99223329,1.0078275)">###.##</text><text
       style="font-size:5.33309px;font-family:Arial;fill:#000000;stroke-width:0.266654"
       x="37.46703"
       y="57.375381"
       id="text32"
       transform="scale(0.99223329,1.0078275)"
       inkscape:label="LABEL">Speed:</text><text
       style="font-size:5.33309px;font-family:Arial;fill:#000000;stroke-width:0.266654"
       x="37.914379"
       y="49.654156"
       id="text32-3"
       transform="scale(0.99223329,1.0078275)"
       inkscape:label="LABEL">Flow:</text><text
       style="font-size:5.33309px;font-family:Arial;fill:#000000;stroke-width:0.266654"
       x="36.665901"
       y="64.881531"
       id="text33"
       transform="scale(0.99223329,1.0078275)"
       inkscape:label="LABEL">Temperature:</text><text
       style="font-size:5.33309px;font-family:Arial;fill:#000000;stroke-width:0.266654"
       x="37.238449"
       y="73.182899"
       id="text34"
       transform="scale(0.99223329,1.0078275)"
       inkscape:label="LABEL">Pressure In:</text><rect
       style="opacity:0.98;fill:none;fill-opacity:1;stroke:#050505;stroke-width:0.223844;stroke-miterlimit:4;stroke-dasharray:none;stroke-opacity:1"
       id="rect50"
       width="68.156349"
       height="6.2866416"
       x="34.849995"
       y="36.158207"
       ry="0.80173641"
       rx="1.2348369" /><rect
       style="opacity:0.98;fill:none;fill-opacity:1;stroke:#050505;stroke-width:0.282803;stroke-miterlimit:4;stroke-dasharray:none;stroke-opacity:1"
       id="rect51"
       width="68.167831"
       height="40.871834"
       x="32.978165"
       y="44.158207"
       ry="2.0381505"
       rx="1.2350451" /><rect
       style="opacity:0.98;fill:#969696;fill-opacity:1;stroke:#050509;stroke-width:0.302038;stroke-miterlimit:4;stroke-dasharray:none;stroke-opacity:1"
       id="rect6"
       width="40.17091"
       height="33.659664"
       x="191.05949"
       y="36.440063"
       ry="1.4467952" /><rect
       x="201.89519"
       y="62.068363"
       style="fill:#000000;stroke:#000000;stroke-width:0.334892px"
       id="rect7"
       width="27.851984"
       height="6.1721406"
       ry="1.5672482" /><text
       style="font-size:5.33309px;font-family:Arial;fill:#00ffff;stroke-width:0.266654"
       x="205.28514"
       y="66.315948"
       id="SIC_2002_CV"
       transform="scale(0.99223329,1.0078275)">###.##</text><text
       style="font-size:5.33309px;font-family:Arial;fill:#000000;stroke-width:0.266654"
       x="194.32431"
       y="66.070656"
       id="text8"
       transform="scale(0.99223329,1.0078275)"
       inkscape:label="LABEL">Cv:</text><text
       style="font-size:5.33309px;font-family:Arial;fill:#000000;stroke-width:0.266654"
       x="202.72505"
       y="42.561836"
       id="text9"
       transform="scale(0.99223329,1.0078275)">SIC_2002</text><rect
       style="opacity:0.98;fill:none;fill-opacity:1;stroke:#050505;stroke-width:0.35537;stroke-miterlimit:4;stroke-dasharray:none;stroke-opacity:1"
       id="rect9"
       width="35.603619"
       height="6.383625"
       x="193.5258"
       y="38.178726"
       ry="0.81410474"
       rx="0.64505607" /><rect
       x="201.89519"
       y="53.601688"
       style="fill:#000000;stroke:#000000;stroke-width:0.334892px"
       id="rect10"
       width="27.851984"
       height="6.1721406"
       ry="1.5672482" /><text
       style="font-size:5.33309px;font-family:Arial;fill:#00ffff;stroke-width:0.266654"
       x="205.28514"
       y="57.915058"
       id="SIC_2002_SP"
       transform="scale(0.99223329,1.0078275)">###.##</text><text
       style="font-size:5.33309px;font-family:Arial;fill:#000000;stroke-width:0.266654"
       x="194.32431"
       y="57.669769"
       id="text11"
       transform="scale(0.99223329,1.0078275)"
       inkscape:label="LABEL">Sp:</text><rect
       x="201.89519"
       y="46.193348"
       style="fill:#000000;stroke:#000000;stroke-width:0.334892px"
       id="rect11"
       width="27.851984"
       height="6.1721406"
       ry="1.5672482" /><text
       style="font-size:5.33309px;font-family:Arial;fill:#00ffff;stroke-width:0.266654"
       x="205.28514"
       y="50.564285"
       id="SIC_2002_PV"
       transform="scale(0.99223329,1.0078275)">###.##</text><text
       style="font-size:5.33309px;font-family:Arial;fill:#000000;stroke-width:0.266654"
       x="194.32431"
       y="50.318996"
       id="text13"
       transform="scale(0.99223329,1.0078275)"
       inkscape:label="LABEL">Pv:</text><path
       style="fill:#9d3600;stroke:#dadada;stroke-width:0.4;stroke-dasharray:1.6, 0.4;stroke-dashoffset:0;stroke-opacity:1;marker-end:url(#ArrowWide)"
       d="M 213.29924,70.601903 V 86.95735"
       id="path13" /><path
       style="fill:none;stroke:#dadada;stroke-width:0.4;stroke-dasharray:1.20000264,0.4;stroke-dashoffset:0;stroke-opacity:1;marker-end:url(#Sketch)"
       d="m 100.40484,81.587582 h 10.79288 l -0.26332,1.96966 26.58749,0.101009"
       id="path14" /><text
       style="font-size:5.33309px;font-family:Arial;fill:#000000;stroke-width:0.266654"
       x="141.48938"
       y="65.399231"
       id="text15"
       transform="scale(0.99223329,1.0078275)"
       inkscape:label="LABEL">HH:</text><rect
       x="149.26552"
       y="61.158203"
       style="fill:#000000;stroke:#000000;stroke-width:0.351923px"
       id="rect15"
       width="27.1689"
       height="6.0029826"
       ry="1.774224" /><text
       style="font-size:5.33309px;font-family:Arial;fill:#00ffff;stroke-width:0.266654"
       x="154.0464"
       y="65.644379"
       id="PIT_2002_HH"
       transform="scale(0.99223329,1.0078275)">###.##</text><text
       style="font-size:5.33309px;font-family:Arial;fill:#000000;stroke-width:0.266654"
       x="140.62323"
       y="83.9981"
       id="text17"
       transform="scale(0.99223329,1.0078275)"
       inkscape:label="LABEL">Pv:</text><text
       style="font-size:3.24893px;font-family:Arial;fill:#ffff00;stroke-width:0.162446"
       x="73.654671"
       y="96.979317"
       id="text18"
       transform="scale(0.99246797,1.0075892)"
       inkscape:label="LABEL">8888</text><rect
       style="fill:none;stroke:#050505;stroke-width:0.229842;stroke-dasharray:0.91937, 0.229842;stroke-dashoffset:0;stroke-opacity:1"
       id="rect19"
       width="291.29761"
       height="121.76944"
       x="-0.14999998"
       y="7.1582065"
       ry="0" /><path
       style="fill:none;stroke:#dadada;stroke-width:0.4;stroke-dasharray:1.19999821,0.4;stroke-dashoffset:0;stroke-opacity:1;marker-end:url(#Sketch)"
       d="m 180.84998,74.14523 h 8.3181 l 15.98834,0.02595 -0.21261,-2.857575"
       id="path2"
       sodipodi:nodetypes="cccc" /><rect
       x="71.106773"
       y="78.27993"
       style="fill:#000000;stroke:#000000;stroke-width:0.336598px"
       id="rect8"
       width="28.143999"
       height="6.170434"
       ry="1.5668147" /><text
       style="font-size:5.33309px;font-family:Arial;fill:#000000;stroke-width:0.266654"
       x="37.238449"
       y="81.583778"
       id="text10"
       transform="scale(0.99223329,1.0078275)"
       inkscape:label="LABEL">Pressure Out:</text><text
       style="font-size:5.33309px;font-family:Arial;fill:#00ffff;stroke-width:0.266654"
       x="74.345833"
       y="82.512337"
       id="UIT_2001_PRESSURE_OUT"
       transform="scale(0.99223329,1.0078275)">###.##</text><path
       style="fill:none;stroke:#dadada;stroke-width:0.416248;stroke-dasharray:1.24874, 0.416248;stroke-dashoffset:0;stroke-opacity:1;marker-end:url(#Sketch)"
       d="m 103.24627,55.158206 h 25.19063 l -0.61441,-6.824999 62.05498,-0.350001"
       id="path15" /><rect
       x="148.68108"
       y="69.158203"
       style="fill:#000000;stroke:#000000;stroke-width:0.351923px"
       id="rect16"
       width="27.1689"
       height="6.0029826"
       ry="1.774224" /><text
       style="font-size:5.33309px;font-family:Arial;fill:#00ffff;stroke-width:0.266654"
       x="154.02298"
       y="73.261581"
       id="PIT_2002_H"
       transform="scale(0.99223329,1.0078275)">###.##</text><text
       style="font-size:5.33309px;font-family:Arial;fill:#000000;stroke-width:0.266654"
       x="143.96814"
       y="73.582245"
       id="text16"
       transform="scale(0.99223329,1.0078275)"
       inkscape:label="LABEL">H:</text><text
       style="font-size:5.33309px;font-family:Arial;fill:#00ffff;stroke-width:0.266654"
       x="72.628311"
       y="48.922924"
       id="UIT_2002_FLOW"
       transform="scale(0.99223329,1.0078275)">###.##</text><g
       id="g2"><rect
         style="opacity:0.98;fill:#969696;fill-opacity:1;stroke:#050509;stroke-width:0.344741;stroke-miterlimit:4;stroke-dasharray:none;stroke-opacity:1"
         id="rect25-6-3"
         width="68.820526"
         height="25.595568"
         x="202.84998"
         y="7.3604226"
         ry="1.100176" /><path
         style="fill:#000080;stroke-width:0.485812"
         d="m 208.01868,28.331021 c -0.045,-0.194696 -0.0793,-0.29943 -0.20948,-0.638963 -0.0783,-0.204388 -0.1425,-0.565375 -0.1426,-0.802226 -4.7e-4,-1.179428 -0.0149,-1.358739 -0.11481,-1.426772 -0.0593,-0.0401 -0.0923,-0.374355 -0.0733,-0.742013 0.019,-0.367671 0.0718,-1.786209 0.11733,-3.152273 0.0927,-2.781735 0.13779,-2.614201 -0.84275,-3.131801 -0.40881,-0.215817 -0.59474,-0.447809 -0.96342,-1.202066 -0.25127,-0.514044 -0.57195,-1.064034 -0.71262,-1.222177 -0.28749,-0.323224 -0.32424,-0.590239 -0.11271,-0.819096 0.10835,-0.117232 0.10627,-0.202717 -0.009,-0.352432 -0.18077,-0.235668 -0.0354,-0.609755 0.46079,-1.185223 0.2489,-0.288736 0.31153,-0.48624 0.28844,-0.909693 -0.0349,-0.640367 0.36903,-1.255696 1.06975,-1.629577 0.51667,-0.275636 0.56097,-0.283723 0.44505,-0.08074 -0.0618,0.108143 0.0105,0.12659 0.24553,0.06283 0.18318,-0.04946 0.4,-0.04478 0.48183,0.01136 0.0818,0.05614 0.45524,0.110215 0.82981,0.120441 0.71739,0.01938 1.34198,0.301368 1.822,0.822123 0.1665,0.180594 0.42792,0.300834 0.65418,0.300834 0.20726,0 0.53835,0.09036 0.73574,0.200779 0.40836,0.228516 0.88645,1.150615 0.64222,1.238699 -0.0816,0.02941 -0.14838,0.146106 -0.14838,0.259328 0,0.148312 0.0431,0.167628 0.15446,0.06918 0.2148,-0.189951 1.45197,0.317409 1.45197,0.595452 0,0.119973 0.0711,0.175982 0.17083,0.13461 0.25117,-0.104266 1.17585,0.2745 1.58953,0.651127 0.19762,0.179926 0.41065,0.327101 0.4734,0.327101 0.0628,0 0.11409,0.199108 0.11409,0.442529 0,0.330911 -0.14025,0.620315 -0.55607,1.1474 -0.40355,0.511504 -0.55639,0.82106 -0.55723,1.128485 -0.001,0.44734 -0.64861,1.806159 -0.90077,1.890648 -0.0816,0.0274 -0.35298,0.08642 -0.603,0.131268 -0.59382,0.106539 -0.97227,0.450149 -1.02062,0.926784 -0.0261,0.257457 -0.23502,0.575468 -0.63596,0.968136 -0.32838,0.32162 -0.54906,0.584758 -0.49041,0.584758 0.0587,0 10e-4,0.125855 -0.12731,0.279714 -0.18187,0.217421 -0.32824,0.263137 -0.65724,0.20539 -0.32188,-0.05681 -0.38883,-0.03676 -0.27947,0.08127 0.40105,0.433974 0.022,1.038034 -0.6513,1.038034 -0.23467,0 -0.31705,0.06951 -0.31705,0.267416 0,0.178254 -0.0824,0.267415 -0.24714,0.267415 -0.1373,0 -0.24714,0.08916 -0.24714,0.200578 0,0.110282 0.0561,0.200579 0.12461,0.200579 0.14714,0 -0.10452,0.52554 -0.35554,0.742513 -0.14314,0.123716 -0.14314,0.191556 0,0.441259 0.11715,0.204388 0.12838,0.324695 0.0366,0.391332 -0.14981,0.108677 -0.35042,0.575534 -0.31733,0.738456 0.0427,0.210404 -0.56808,0.634285 -0.61589,0.427357 z m 3.32568,-6.255474 c -0.18432,-0.07894 -0.36198,-0.219226 -0.39481,-0.311796 -0.0328,-0.09257 0.0826,-0.707624 0.2565,-1.366772 l 0.31619,-1.198457 1.01613,-0.04679 c 0.87529,-0.0401 1.08618,-0.09905 1.52149,-0.425552 1.44273,-1.08214 1.08771,-3.006448 -0.5952,-3.226168 -0.37017,-0.04812 -1.25691,-0.06918 -1.97054,-0.04612 -1.14453,0.03676 -1.25743,0.06082 -0.95768,0.205391 0.23494,0.113222 0.33982,0.263338 0.33982,0.486307 0,0.416194 -1.34032,5.45784 -1.49778,5.633956 -0.0657,0.07352 -0.29781,0.204321 -0.5157,0.290674 -0.33771,0.133808 -0.15915,0.156332 1.21027,0.152924 1.27265,-0.003 1.5368,-0.03409 1.27131,-0.147577 z m 0.32994,-3.538332 c 0.0457,-0.128661 0.22576,-0.790523 0.40019,-1.470744 0.34776,-1.356072 0.47327,-1.468526 1.07118,-0.959641 0.82593,0.70294 -0.002,2.664369 -1.12536,2.664369 -0.35788,0 -0.41528,-0.03877 -0.34601,-0.233997 z m 1.54982,-4.178243 c 0,-0.07352 -0.0245,-0.133674 -0.0545,-0.133674 -0.03,0 -0.0889,0.06015 -0.13086,0.133674 -0.042,0.07352 -0.0175,0.133674 0.0545,0.133674 0.072,0 0.13086,-0.06015 0.13086,-0.133674 z m -5.80786,-2.866738 c 0,-0.03275 -0.0556,-0.09611 -0.12357,-0.141561 -0.068,-0.04545 -0.12357,-0.01872 -0.12357,0.05882 0,0.07787 0.0556,0.141628 0.12357,0.141628 0.068,0 0.12357,-0.02674 0.12357,-0.05882 z m 20.63645,15.033784 c -0.38473,-0.416262 -0.36796,-1.103361 0.0385,-1.577825 0.22598,-0.263806 0.3653,-0.30217 0.97752,-0.269353 0.66872,0.03609 0.71398,0.05949 0.71398,0.370812 v 0.332515 l -0.19237,-0.297158 c -0.22844,-0.3529 -0.80808,-0.398951 -1.09631,-0.08702 -0.22063,0.238742 -0.25737,1.016753 -0.0663,1.403125 0.14663,0.296423 0.84161,0.35945 1.08308,0.09818 0.0992,-0.10734 0.14829,-0.112086 0.14829,-0.01404 0,0.396879 -1.24808,0.428761 -1.60643,0.04077 z m 3.24114,0.17792 c -0.18454,-0.08034 -0.52257,-0.746658 -0.52257,-1.030101 0,-0.306314 0.61282,-1.019674 0.87598,-1.019674 0.22884,0 0.2285,0.008 -0.011,0.267416 -0.3019,0.326633 -0.3305,1.148783 -0.0548,1.574696 0.19565,0.302238 0.0956,0.374489 -0.28765,0.207663 z m 1.00292,-0.154995 c 0.3195,-0.381975 0.27617,-1.424166 -0.0701,-1.686615 -0.23524,-0.178255 -0.24294,-0.208131 -0.0537,-0.208131 0.64444,0 1.0834,0.789447 0.82063,1.475851 -0.15266,0.39875 -0.45204,0.663425 -0.7505,0.663425 -0.0992,0 -0.0808,-0.08375 0.0537,-0.24449 z m 1.99629,-0.825125 c 0,-1.051716 0.005,-1.069628 0.30893,-1.069942 0.30571,-3.07e-4 0.30851,0.01003 0.26828,1.002784 l -0.0406,1.003092 h 0.43613 c 0.28499,0 0.47977,-0.08107 0.56207,-0.233997 0.11249,-0.208933 0.12636,-0.201781 0.12971,0.06684 0.004,0.282655 -0.0466,0.300834 -0.83035,0.300834 h -0.8341 z m 3.02751,0.802226 c -0.16101,-0.174177 -0.24715,-0.44567 -0.24715,-0.77892 0,-0.675222 0.39578,-1.092934 1.03556,-1.092934 0.60582,0 0.87307,0.166759 1.0632,0.663426 0.24521,0.6405 -0.17374,1.475857 -0.74017,1.475857 -0.0822,0 -0.0599,-0.08716 0.0537,-0.210136 0.233,-0.25211 0.26516,-1.397758 0.0459,-1.635003 -0.22702,-0.245627 -0.69295,-0.190887 -0.83594,0.09818 -0.19537,0.395008 -0.1529,1.228053 0.0766,1.502432 0.1903,0.227514 0.1903,0.244491 0,0.244491 -0.11248,0 -0.31572,-0.120307 -0.45165,-0.267416 z m 3.15107,-0.802226 c 0,-1.057557 0.004,-1.069628 0.31529,-1.069628 0.26272,0 0.36162,0.117099 0.59302,0.701944 l 0.27772,0.701943 0.17493,-0.334252 c 0.26203,-0.500677 0.21879,-0.253045 -0.0846,0.484369 l -0.26825,0.652063 -0.4095,-0.935927 -0.4095,-0.935927 0.029,0.902782 c 0.0171,0.533761 -0.0215,0.902662 -0.0946,0.902502 -0.0721,-1.67e-4 -0.12357,-0.446138 -0.12357,-1.069916 z m 1.79179,0.259529 c 0,-0.498672 -0.0469,-0.778773 -0.12191,-0.728598 -0.0777,0.05213 -0.084,-0.03008 -0.0176,-0.226111 0.075,-0.22123 0.21988,-0.319882 0.51567,-0.351362 0.3574,-0.0381 0.39074,-0.01671 0.25427,0.16101 -0.11303,0.147376 -0.13278,0.450148 -0.0704,1.079961 l 0.0866,0.875193 h -0.32332 c -0.31314,0 -0.32332,-0.0254 -0.32332,-0.810113 z m 2.08062,-0.143834 c 0.0302,-0.691183 -0.004,-0.985807 -0.12356,-1.067883 -0.10106,-0.06931 0.12519,-0.114158 0.58233,-0.115361 0.41922,-0.001 0.81274,0.06844 0.8959,0.158404 0.20844,0.225508 0.18449,0.635153 -0.0427,0.72944 -0.16074,0.06684 -0.15097,0.109546 0.0618,0.270757 0.31887,0.241684 0.32568,0.659482 0.0137,0.840177 -0.13146,0.07613 -0.50681,0.138553 -0.8341,0.138687 l -0.5951,3e-4 z m 0.98395,0.659816 c 0.19542,-0.211472 0.18716,-0.313198 -0.0459,-0.565375 -0.30136,-0.326098 -0.42367,-0.251642 -0.42367,0.257858 0,0.485572 0.18999,0.610022 0.46957,0.307517 z m -0.0371,-1.310295 c 0,-0.4182 -0.37865,-0.527946 -0.49171,-0.142497 -0.10177,0.346952 0.0228,0.57079 0.28698,0.515783 0.12476,-0.02607 0.20473,-0.171772 0.20473,-0.373219 z m 1.89387,0.534497 -0.0403,-1.069942 0.4325,0.0025 c 0.28474,0.0015 0.37603,0.04077 0.26723,0.115695 -0.11967,0.08208 -0.15377,0.376694 -0.12357,1.067884 0.0395,0.904754 0.0277,0.954521 -0.22693,0.954234 -0.25003,-2.81e-4 -0.27142,-0.07439 -0.30893,-1.07025 z m 2.34348,0.06717 c 0.24752,-0.55154 0.48142,-1.002784 0.51978,-1.002784 0.0384,0 0.27611,0.451284 0.52833,1.002784 l 0.45859,1.002778 h -0.29959 c -0.19375,0 -0.32807,-0.09712 -0.3802,-0.274835 -0.0653,-0.222634 -0.16657,-0.267014 -0.53351,-0.233996 -0.34284,0.03075 -0.44872,0.09765 -0.43573,0.274767 0.009,0.128662 -0.0559,0.233997 -0.14528,0.233997 -0.10864,0 -0.0134,-0.332114 0.28761,-1.002778 z m 0.559,0.100256 c -0.14478,-0.44019 -0.2003,-0.474811 -0.36664,-0.228717 -0.23957,0.354504 -0.20718,0.462647 0.13856,0.462647 0.23746,0 0.28799,-0.05213 0.22808,-0.233997 z m -34.14136,-3.684645 c -0.56634,-0.210202 -0.77281,-0.654803 -0.6915,-1.48885 0.12946,-1.327813 1.20354,-2.584753 2.47101,-2.891655 0.59048,-0.142965 0.71628,-0.135412 0.99142,0.05949 0.84098,0.596187 -0.12695,2.01145 -1.62355,2.373841 -0.65201,0.157869 -0.65632,0.16228 -0.65632,0.66777 0,0.841499 0.5629,1.009367 1.52624,0.455161 0.61726,-0.355106 0.74576,-0.286665 0.29644,0.157869 -0.65105,0.644109 -1.62093,0.923402 -2.31374,0.666232 z m 1.40601,-2.505837 c 0.4316,-0.410046 0.77612,-1.207714 0.63119,-1.461448 -0.26573,-0.465186 -0.89802,0.172106 -1.357,1.367856 -0.18448,0.480625 -0.18232,0.501412 0.052,0.501412 0.13447,0 0.43767,-0.183535 0.67376,-0.407774 z m 2.20184,2.472619 c -0.36292,-0.275034 -0.35045,-0.446204 0.15668,-2.151794 0.23722,-0.797842 0.43185,-1.495749 0.4325,-1.550903 4.7e-4,-0.05548 -0.11004,-0.100255 -0.24596,-0.100255 -0.39855,0 -0.28539,-0.240881 0.25271,-0.537906 0.27492,-0.151787 0.72124,-0.492322 0.99183,-0.756843 0.55793,-0.545391 0.69958,-0.515716 0.49974,0.104533 -0.18693,0.580213 -0.17573,0.655405 0.0977,0.655405 0.17474,0 0.21888,0.06904 0.17094,0.267415 -0.0399,0.165088 -0.16855,0.267416 -0.33621,0.267416 -0.23909,0 -0.32605,0.190753 -0.72701,1.594928 -0.25049,0.87721 -0.45544,1.629288 -0.45544,1.671296 0,0.17284 0.31154,0.05748 0.579,-0.214347 0.33543,-0.340936 0.37647,-0.171304 0.0582,0.24068 -0.21261,0.275303 -0.88987,0.718526 -1.09789,0.718526 -0.0562,0 -0.2258,-0.09364 -0.37685,-0.208131 z m 6.70415,0.02139 c -1.2301,-0.579879 -0.67685,-3.052519 0.90785,-4.057368 0.40003,-0.253647 0.73043,-0.353368 1.1711,-0.353368 0.54009,0 0.65821,0.05347 0.98305,0.447074 0.33314,0.403429 0.36227,0.510368 0.29825,1.095266 -0.14285,1.305116 -0.9583,2.450464 -2.0245,2.84354 -0.68487,0.25251 -0.84642,0.255518 -1.33575,0.02473 z m 1.50113,-0.773813 c 0.41076,-0.663626 0.834,-2.239051 0.7667,-2.853872 -0.0223,-0.20372 -0.13536,-0.434576 -0.25124,-0.513109 -0.31404,-0.212743 -0.76193,0.310926 -1.14004,1.332893 -0.80283,2.169867 -0.35739,3.620547 0.62458,2.034068 z m 2.2275,0.124785 c 0.10007,-0.459573 0.21353,-1.002357 0.25215,-1.206117 0.0895,-0.47207 0.28458,-0.611292 0.28815,-0.205657 0.001,0.169833 0.10396,0.549869 0.2277,0.844587 0.60609,1.443535 2.55016,1.221228 2.32709,-0.266079 -0.0467,-0.311394 -0.32901,-0.782943 -0.87203,-1.456635 -0.8841,-1.096837 -1.11429,-1.694188 -0.93047,-2.414531 0.12914,-0.506024 0.69803,-1.098328 1.1809,-1.229456 0.17074,-0.04612 0.65301,-0.0401 1.07173,0.01404 1.02835,0.132605 1.34239,0.136214 1.5834,0.01805 0.18376,-0.09003 0.17917,0.008 -0.0457,0.976898 -0.25903,1.115986 -0.38149,1.245263 -0.51181,0.540244 -0.099,-0.535499 -0.71255,-1.197434 -1.10997,-1.197434 -0.47685,0 -0.69252,0.132873 -0.89153,0.549268 -0.25757,0.538908 -0.0367,1.047959 0.94978,2.188983 l 0.78713,0.910442 v 0.83896 c 0,0.992418 -0.25499,1.382493 -1.14384,1.749783 -0.48913,0.202115 -0.67216,0.208866 -1.64095,0.06082 -0.78547,-0.120307 -1.15967,-0.126857 -1.33808,-0.02339 -0.13622,0.07887 -0.2742,0.143432 -0.30662,0.143432 -0.0324,0 0.0229,-0.376026 0.12298,-0.835651 z m 5.68642,0.592912 c -0.29922,-0.357779 -0.37911,-1.006768 -0.21264,-1.72752 0.41813,-1.81043 2.08703,-3.223708 2.72543,-2.307973 l 0.20992,0.301102 0.0687,-0.284392 c 0.0557,-0.230589 0.16276,-0.284392 0.56596,-0.284392 0.48412,0 0.49461,0.01002 0.39794,0.367671 -0.0546,0.202249 -0.27929,1.019861 -0.49931,1.816967 -0.4265,1.545174 -0.38856,2.029831 0.10567,1.350003 0.17262,-0.237472 0.26304,-0.291543 0.26304,-0.157401 0,0.309389 -0.65831,1.007282 -1.05067,1.113834 -0.52733,0.143232 -0.74542,-0.08528 -0.7161,-0.75026 l 0.025,-0.567381 -0.35899,0.528147 c -0.54481,0.801585 -1.15517,1.042493 -1.52401,0.601535 z m 1.59206,-1.126707 c 0.77008,-0.990226 1.14538,-2.909066 0.56898,-2.909066 -0.30636,0 -0.55818,0.32416 -0.93444,1.202854 -0.71504,1.669906 -0.47561,2.787737 0.36546,1.706212 z m 8.05679,1.225044 c -0.30798,-0.194095 -0.2727,-0.558157 0.21398,-2.207824 0.23662,-0.802072 0.43125,-1.473358 0.4325,-1.491745 0.001,-0.01871 -0.10894,-0.03342 -0.24487,-0.03342 -0.42233,0 -0.27203,-0.360253 0.27803,-0.666433 0.28885,-0.160811 0.73269,-0.508898 0.98631,-0.773614 0.5232,-0.546059 0.68099,-0.507895 0.47995,0.116163 -0.18796,0.583355 -0.17321,0.789093 0.0566,0.789093 0.29989,0 0.15478,0.461377 -0.16043,0.510101 -0.23111,0.03542 -0.33943,0.274366 -0.71454,1.574556 -0.24318,0.842843 -0.40586,1.595957 -0.36153,1.673575 0.0493,0.08635 0.21923,-0.0025 0.43777,-0.229118 0.37393,-0.387588 0.47798,-0.303641 0.16981,0.137016 -0.4398,0.628938 -1.11852,0.88844 -1.57354,0.601668 z m 2.67594,-0.137283 c -0.84369,-1.009715 0.67134,-4.264203 1.98508,-4.264203 0.28881,0 0.48207,0.08294 0.57713,0.247632 0.13911,0.241015 0.14901,0.241015 0.37176,0 0.22045,-0.238542 0.97195,-0.352833 0.96868,-0.147309 -9.3e-4,0.05548 -0.11532,0.491386 -0.25431,0.969352 -0.74924,2.576578 -0.80747,3.1705 -0.24705,2.51964 0.34627,-0.402159 0.44485,-0.239077 0.12306,0.203586 -0.7723,1.062329 -1.89505,0.940699 -1.59977,-0.173309 0.10958,-0.413388 0.0958,-0.406169 -0.47379,0.250305 -0.65423,0.753977 -1.05848,0.863863 -1.45079,0.394339 z m 1.58778,-0.888179 c 0.31109,-0.376627 0.82039,-1.492533 0.90568,-1.984421 0.18114,-1.044771 -0.30385,-1.497513 -0.79869,-0.745588 -0.67782,1.02996 -1.02251,2.963986 -0.52825,2.963986 0.1254,0 0.31496,-0.105269 0.42126,-0.233997 z m 8.24789,0.902495 c -0.71878,-0.777717 0.16259,-3.408386 1.36787,-4.082766 0.42057,-0.235334 0.99984,-0.254516 1.19837,-0.03943 0.10993,0.11897 0.1594,0.111016 0.20801,-0.03342 0.525,-1.559825 0.5425,-1.769767 0.16282,-1.953074 -0.2375,-0.114693 -0.16129,-0.156533 0.549,-0.301569 0.45363,-0.09264 0.87649,-0.147176 0.9397,-0.121243 0.0632,0.02607 -0.24021,1.310616 -0.67427,2.854895 -0.43405,1.544278 -0.77452,2.928115 -0.75659,3.07519 0.0314,0.257657 0.0431,0.255986 0.32093,-0.04478 0.15858,-0.171571 0.31941,-0.278377 0.35739,-0.237272 0.038,0.04077 -0.15474,0.316875 -0.42827,0.61283 -0.77383,0.837289 -1.50285,0.664561 -1.35502,-0.321086 l 0.0684,-0.455829 -0.58572,0.657477 c -0.64071,0.719234 -0.97941,0.815493 -1.37258,0.390061 z m 1.57094,-0.969352 c 0.5501,-0.649657 1.10864,-2.275403 0.95807,-2.788699 -0.0575,-0.196034 -0.16691,-0.257457 -0.40502,-0.22738 -0.26037,0.03275 -0.40622,0.208732 -0.72244,0.871015 -0.77274,1.618381 -0.65432,3.117865 0.16939,2.145091 z m 3.20782,0.963558 c -0.87512,-0.744813 -0.3208,-2.727978 1.04422,-3.735842 0.6806,-0.502548 1.80214,-0.713199 2.14719,-0.403362 0.73029,0.655806 -0.72196,2.394494 -2.00785,2.403898 -0.38216,0.003 -0.4016,0.0274 -0.4016,0.511036 0,0.279446 0.0667,0.58028 0.14829,0.668512 0.22971,0.248567 0.98119,0.188748 1.44118,-0.114692 0.50501,-0.333117 0.63205,-0.259663 0.24138,0.139622 -0.78435,0.801591 -2.00362,1.049297 -2.61281,0.530821 z m 1.81385,-2.376435 c 0.52187,-0.511037 0.74581,-1.43246 0.38458,-1.582443 -0.25963,-0.107808 -0.64347,0.297158 -0.99733,1.052171 -0.40478,0.863669 -0.39439,1.074687 0.044,0.894334 0.18678,-0.07686 0.44271,-0.240681 0.56872,-0.364062 z m -42.4188,2.081395 c 0.91712,-3.439666 0.93776,-3.576575 0.53924,-3.576575 -0.0979,0 -0.17807,-0.04946 -0.17807,-0.110081 0,-0.124785 1.4966,-0.454425 1.59241,-0.350761 0.0342,0.03676 -0.0584,0.468328 -0.20566,0.958538 -0.1473,0.490184 -0.24518,0.915762 -0.21751,0.945699 0.0276,0.03008 0.22099,-0.311461 0.42961,-0.758608 0.59202,-1.26895 1.36687,-1.606144 1.36687,-0.594851 0,0.830037 -0.3592,1.230679 -0.67904,0.757405 -0.0826,-0.122245 -0.23351,-0.187679 -0.33531,-0.145437 -0.23045,0.09564 -0.87066,1.515986 -1.14509,2.540392 l -0.20595,0.768801 h -0.53868 -0.53868 z m 17.94315,0.261801 c 0.29949,-0.844447 0.95777,-3.500461 0.90468,-3.650163 -0.0367,-0.10353 -0.15518,-0.188213 -0.26327,-0.188213 -0.10809,0 -0.16486,-0.05548 -0.12615,-0.123181 0.0741,-0.129731 1.64469,-0.35437 1.74191,-0.249236 0.0311,0.03342 -0.0548,0.411383 -0.19096,0.839381 -0.1361,0.428025 -0.24746,0.807346 -0.24746,0.84293 0,0.03542 0.34809,-0.334854 0.77353,-0.823153 0.67073,-0.769863 0.83166,-0.887844 1.211,-0.887844 0.85778,0 0.91537,0.390529 0.33846,2.2949 -0.21758,0.718212 -0.35638,1.348272 -0.30845,1.400138 0.0479,0.05213 0.22595,-0.04679 0.39559,-0.219226 0.47519,-0.483032 0.36508,-0.103598 -0.13001,0.447942 -0.33595,0.374288 -0.53714,0.488446 -0.86065,0.488446 -0.70345,0 -0.74164,-0.292947 -0.25578,-1.962278 0.23166,-0.795944 0.37641,-1.497867 0.32166,-1.559839 -0.31822,-0.360185 -1.52471,1.240304 -1.93727,2.569922 l -0.2747,0.885344 -0.57954,0.04144 c -0.45849,0.03275 -0.56556,0.002 -0.51259,-0.147376 z m 12.44589,-0.01671 c 0,-0.104333 0.19463,-0.861297 0.4325,-1.682197 0.48051,-1.658203 0.51835,-1.978312 0.24715,-2.090913 -0.37839,-0.157134 -0.16284,-0.287199 0.62758,-0.378833 0.44711,-0.05213 0.83431,-0.07105 0.86044,-0.04277 0.0262,0.02807 -0.0332,0.379501 -0.13182,0.780564 -0.25131,1.021766 -0.23596,1.044243 0.24637,0.36072 0.77672,-1.100634 1.72132,-1.486579 2.10157,-0.85865 0.2025,0.334386 0.17409,0.499206 -0.4401,2.552744 -0.28196,0.942731 -0.27727,0.880419 -0.0663,0.880419 0.0937,0 0.25756,-0.135346 0.36423,-0.300834 0.11282,-0.17498 0.19666,-0.225308 0.20043,-0.120307 0.004,0.09925 -0.18606,0.388858 -0.4214,0.643441 -0.36153,0.391198 -0.50044,0.456498 -0.89589,0.421141 -0.41968,-0.03743 -0.47163,-0.08321 -0.50305,-0.44293 -0.0193,-0.220629 0.13365,-0.938854 0.33982,-1.596097 0.20617,-0.657277 0.37485,-1.273956 0.37485,-1.370469 0,-0.328237 -0.31804,-0.176851 -0.82506,0.392802 -0.6885,0.773479 -1.08454,1.503702 -1.26901,2.339814 l -0.15486,0.70195 h -0.54375 c -0.38705,0 -0.54375,-0.05481 -0.54375,-0.189683 z m 14.34619,-1.581921 c 0.26233,-0.974365 0.47819,-1.841771 0.47968,-1.927563 10e-4,-0.08582 -0.1502,-0.212074 -0.33711,-0.280649 -0.32361,-0.118703 -0.30859,-0.132004 0.31501,-0.278577 1.21922,-0.286531 1.28296,-0.234198 0.9516,0.782021 -0.27481,0.842776 -0.22293,0.946126 0.13425,0.267415 0.60138,-1.142768 1.12966,-1.503488 1.40037,-0.956192 0.15695,0.317276 -9.4e-4,0.960523 -0.28161,1.146518 -0.17053,0.113021 -0.25452,0.08943 -0.39138,-0.109881 -0.15168,-0.220896 -0.20148,-0.229585 -0.38432,-0.06684 -0.23492,0.209067 -0.76635,1.426458 -1.08846,2.49336 l -0.21192,0.70195 h -0.53155 -0.53154 z"
         id="use1" /></g></g></svg>
